<svg width="36" height="37" viewBox="0 0 36 37" fill="none" xmlns="http://www.w3.org/2000/svg">
<path d="M8.12881 14.0864C8.91361 13.2836 10.0062 13.2206 10.9656 14.0864L18 20.831L25.0344 14.0864C25.9938 13.2206 27.0882 13.2836 27.8676 14.0864C28.6524 14.8874 28.602 16.241 27.8676 16.9934C27.1368 17.7458 19.4166 25.097 19.4166 25.097C19.2328 25.2875 19.0124 25.4391 18.7687 25.5426C18.525 25.6461 18.263 25.6994 17.9982 25.6994C17.7334 25.6994 17.4714 25.6461 17.2277 25.5426C16.984 25.4391 16.7637 25.2875 16.5798 25.097C16.5798 25.097 8.86321 17.7458 8.12881 16.9934C7.39261 16.241 7.34401 14.8874 8.12881 14.0864Z" fill="black"/>
</svg>
