<svg width="38" height="38" viewBox="0 0 38 38" fill="none" xmlns="http://www.w3.org/2000/svg">
<g clip-path="url(#clip0)">
<path d="M28.9191 21.0916C28.8511 21.0589 26.3054 19.8054 25.853 19.6426C25.6683 19.5762 25.4705 19.5115 25.2601 19.5115C24.9163 19.5115 24.6276 19.6828 24.4026 20.0193C24.1483 20.3973 23.3785 21.2971 23.1407 21.5659C23.1096 21.6014 23.0672 21.6438 23.0418 21.6438C23.019 21.6438 22.6251 21.4816 22.5058 21.4298C19.775 20.2436 17.7022 17.391 17.4179 16.9099C17.3774 16.8408 17.3757 16.8094 17.3753 16.8094C17.3853 16.7728 17.4771 16.6807 17.5245 16.6332C17.6632 16.496 17.8134 16.3152 17.9587 16.1402C18.0276 16.0574 18.0965 15.9744 18.1642 15.8961C18.375 15.6508 18.4689 15.4603 18.5778 15.2397L18.6348 15.1251C18.9005 14.5971 18.6736 14.1516 18.6002 14.0077C18.54 13.8873 17.4651 11.2931 17.3508 11.0205C17.076 10.3629 16.7129 10.0566 16.2083 10.0566C16.1614 10.0566 16.2083 10.0566 16.0119 10.0649C15.7728 10.075 14.4707 10.2464 13.895 10.6093C13.2845 10.9942 12.2516 12.2212 12.2516 14.3789C12.2516 16.3208 13.484 18.1544 14.0131 18.8518C14.0263 18.8694 14.0504 18.9051 14.0855 18.9563C16.1118 21.9156 18.6378 24.1087 21.1986 25.1316C23.6639 26.1164 24.8313 26.2302 25.495 26.2302C25.4951 26.2302 25.4951 26.2302 25.4951 26.2302C25.774 26.2302 25.9972 26.2083 26.1942 26.189L26.3191 26.1771C27.1708 26.1015 29.0423 25.1318 29.468 23.9487C29.8034 23.0169 29.8918 21.9988 29.6687 21.6293C29.5159 21.3781 29.2525 21.2517 28.9191 21.0916Z" fill="white"/>
<path d="M20.8503 1.02686C11.3932 1.02686 3.69924 8.66299 3.69924 18.049C3.69924 21.0848 4.51168 24.0564 6.05071 26.6572L3.10494 35.3467C3.05007 35.5087 3.09088 35.6878 3.21072 35.8098C3.29722 35.8982 3.41456 35.9458 3.5344 35.9458C3.58031 35.9458 3.62657 35.9389 3.67169 35.9245L12.7325 33.0452C15.2119 34.37 18.0143 35.0693 20.8504 35.0693C30.3067 35.0694 37.9998 27.4341 37.9998 18.049C37.9998 8.66299 30.3067 1.02686 20.8503 1.02686ZM20.8503 31.5235C18.1816 31.5235 15.5968 30.7529 13.375 29.295C13.3002 29.2459 13.2135 29.2207 13.1262 29.2207C13.0801 29.2207 13.0338 29.2277 12.9888 29.242L8.44992 30.6848L9.91515 26.362C9.96254 26.2221 9.93885 26.0678 9.85155 25.9485C8.15957 23.6366 7.26517 20.9051 7.26517 18.049C7.26517 10.6182 13.3594 4.57271 20.8502 4.57271C28.3401 4.57271 34.4337 10.6182 34.4337 18.049C34.4338 25.4789 28.3403 31.5235 20.8503 31.5235Z" fill="white"/>
</g>
<defs>
<clipPath id="clip0">
<rect width="38" height="38" fill="white" transform="translate(-0.00012207)"/>
</clipPath>
</defs>
</svg>
